<svg xmlns="http://www.w3.org/2000/svg" xmlns:xlink="http://www.w3.org/1999/xlink" version="1.1" x="0px" y="0px" viewBox="0 0 100 125" enable-background="new 0 0 100 100" xml:space="preserve" fill="#122e33"><g><path d="M32.455,43.894l-3.847-0.208v-1.306H24.27v-1.592h-3.098v8.609h-4.419l-0.518-7.374l-5.656,0.401l0.267,3.804H7.839v-3.848   H4.741v16.803h2.366h0.732h3.717v-2.816l0.199,2.837l4.858-0.344l0.799-0.057l-0.017-0.239l-0.163-2.328v-6.22h3.939v8.548v0.619   h0.636h1.859h0.604h4.337v-0.181l3.732,0.202l0.115-2.139v2.117h3.565h0.648v-0.619V43.112v-0.619V42.04h-4.213V43.894z    M7.22,58.563H5.36V42.999h1.86V58.563z M12.33,58.542l-1.09-15.545l4.42-0.313l1.091,15.546L12.33,58.542z M27.988,58.563h-3.703   V42.999h3.703V58.563z M33.074,42.659h2.975v15.904h-2.975V42.659z"/></g></svg>